<?xml version="1.0" ?><svg viewBox="0 0 64 64" xmlns="http://www.w3.org/2000/svg"><title/><g id="Sunny"><path d="M38.7744,19.5518a12.1579,12.1579,0,0,0-11.3413,7.6733,1,1,0,0,0,.7715,1.3594,12.0286,12.0286,0,0,1,9.0879,6.9443,1,1,0,0,0,1.1069.5679,9.3251,9.3251,0,0,1,8.7793,2.8462,1.0007,1.0007,0,0,0,.7407.3281c.02,0,.0406-.0005.0611-.002a1.0007,1.0007,0,0,0,.7563-.4218,12.2235,12.2235,0,0,0-9.9624-19.2954Z" style="fill:#ffd36b"/><path d="M38.7744,16.75a1,1,0,0,1-1-1V8.542a1,1,0,0,1,2,0V15.75A1,1,0,0,1,38.7744,16.75Z" style="fill:#ffe78f"/><path d="M27.4478,21.4414a.9965.9965,0,0,1-.7071-.293l-3.3979-3.3979a1,1,0,1,1,1.414-1.4141l3.398,3.398a1,1,0,0,1-.707,1.707Z" style="fill:#ffe78f"/><path d="M62,32.7676H54.792a1,1,0,0,1,0-2H62a1,1,0,0,1,0,2Z" style="fill:#ffe78f"/><path d="M50.1006,21.4414a1,1,0,0,1-.707-1.707l3.3979-3.398a1,1,0,0,1,1.4141,1.4141l-3.398,3.3979A.9964.9964,0,0,1,50.1006,21.4414Z" style="fill:#ffe78f"/><path d="M51.5659,44.4351A11.2818,11.2818,0,0,0,38.7754,34.0073a14.071,14.071,0,0,0-25.7339,1.7656A7.5344,7.5344,0,0,0,5.72,44.1313,8.5348,8.5348,0,0,0,1,51.7227a8.4075,8.4075,0,0,0,1.1431,4.24.9991.9991,0,0,0,.8632.4956H55.0127a1.0008,1.0008,0,0,0,.8169-.4228,7.4345,7.4345,0,0,0,1.3638-4.3125A7.5632,7.5632,0,0,0,51.5659,44.4351Z" style="fill:#9cd5f2"/></g></svg>